<mxfile host="app.diagrams.net" modified="2023-11-16T02:56:38.151Z" agent="Mozilla/5.0 (Windows NT 10.0; Win64; x64) AppleWebKit/537.36 (KHTML, like Gecko) Chrome/119.0.0.0 Safari/537.36" etag="mNXx20ibRw_l6G5TeuSP" version="22.1.1" type="github" pages="5">
  <diagram id="mfiKfkjJzIvuQUybL6jh" name="第 1 页">
    <mxGraphModel dx="3217" dy="2432" grid="1" gridSize="10" guides="1" tooltips="1" connect="1" arrows="1" fold="1" page="1" pageScale="1" pageWidth="827" pageHeight="1169" math="0" shadow="0">
      <root>
        <mxCell id="0" />
        <mxCell id="1" parent="0" />
        <mxCell id="iu8bM1ByXqhOUyvsoUG0-5" style="edgeStyle=orthogonalEdgeStyle;rounded=0;orthogonalLoop=1;jettySize=auto;html=1;exitX=0.5;exitY=1;exitDx=0;exitDy=0;entryX=0.5;entryY=0;entryDx=0;entryDy=0;" parent="1" source="iu8bM1ByXqhOUyvsoUG0-1" target="iu8bM1ByXqhOUyvsoUG0-4" edge="1">
          <mxGeometry relative="1" as="geometry" />
        </mxCell>
        <mxCell id="iu8bM1ByXqhOUyvsoUG0-1" value="获取买一和卖一的价格是否符合套利条件" style="rhombus;whiteSpace=wrap;html=1;" parent="1" vertex="1">
          <mxGeometry x="525" y="650" width="250" height="70" as="geometry" />
        </mxCell>
        <mxCell id="iu8bM1ByXqhOUyvsoUG0-3" value="&lt;h1&gt;条件：&lt;/h1&gt;&lt;div&gt;卖一- - 买一&amp;nbsp; &amp;gt; 3 *&amp;nbsp; 间隔&lt;/div&gt;" style="text;html=1;strokeColor=none;fillColor=none;spacing=5;spacingTop=-20;whiteSpace=wrap;overflow=hidden;rounded=0;" parent="1" vertex="1">
          <mxGeometry x="850" y="-20" width="190" height="70" as="geometry" />
        </mxCell>
        <mxCell id="iu8bM1ByXqhOUyvsoUG0-10" value="" style="edgeStyle=orthogonalEdgeStyle;rounded=0;orthogonalLoop=1;jettySize=auto;html=1;" parent="1" source="iu8bM1ByXqhOUyvsoUG0-4" target="iu8bM1ByXqhOUyvsoUG0-9" edge="1">
          <mxGeometry relative="1" as="geometry" />
        </mxCell>
        <mxCell id="iu8bM1ByXqhOUyvsoUG0-11" style="edgeStyle=orthogonalEdgeStyle;rounded=0;orthogonalLoop=1;jettySize=auto;html=1;exitX=1;exitY=0.5;exitDx=0;exitDy=0;entryX=0.5;entryY=0;entryDx=0;entryDy=0;" parent="1" source="iu8bM1ByXqhOUyvsoUG0-4" target="iu8bM1ByXqhOUyvsoUG0-1" edge="1">
          <mxGeometry relative="1" as="geometry" />
        </mxCell>
        <mxCell id="iu8bM1ByXqhOUyvsoUG0-4" value="开始套利，高于买一一个间隔挂买入&lt;br&gt;单位数量的币" style="rhombus;whiteSpace=wrap;html=1;" parent="1" vertex="1">
          <mxGeometry x="510" y="780" width="280" height="80" as="geometry" />
        </mxCell>
        <mxCell id="iu8bM1ByXqhOUyvsoUG0-9" value="成交 记录 订单号 价格 数量" style="rhombus;whiteSpace=wrap;html=1;" parent="1" vertex="1">
          <mxGeometry x="510" y="920" width="280" height="80" as="geometry" />
        </mxCell>
        <mxCell id="iu8bM1ByXqhOUyvsoUG0-15" style="edgeStyle=orthogonalEdgeStyle;rounded=0;orthogonalLoop=1;jettySize=auto;html=1;exitX=1;exitY=0.5;exitDx=0;exitDy=0;entryX=0.5;entryY=0;entryDx=0;entryDy=0;" parent="1" source="iu8bM1ByXqhOUyvsoUG0-1" target="iu8bM1ByXqhOUyvsoUG0-1" edge="1">
          <mxGeometry relative="1" as="geometry">
            <Array as="points">
              <mxPoint x="795" y="685" />
              <mxPoint x="795" y="630" />
              <mxPoint x="650" y="630" />
            </Array>
          </mxGeometry>
        </mxCell>
        <mxCell id="iu8bM1ByXqhOUyvsoUG0-79" style="edgeStyle=orthogonalEdgeStyle;rounded=0;orthogonalLoop=1;jettySize=auto;html=1;exitX=1;exitY=0.5;exitDx=0;exitDy=0;entryX=0.5;entryY=0;entryDx=0;entryDy=0;" parent="1" source="iu8bM1ByXqhOUyvsoUG0-16" target="iu8bM1ByXqhOUyvsoUG0-57" edge="1">
          <mxGeometry relative="1" as="geometry">
            <Array as="points">
              <mxPoint x="250" y="50" />
              <mxPoint x="250" y="-540" />
              <mxPoint x="530" y="-540" />
            </Array>
          </mxGeometry>
        </mxCell>
        <mxCell id="cCrjjgJSbbAQ4UlOqyPq-2" value="" style="edgeStyle=orthogonalEdgeStyle;rounded=0;orthogonalLoop=1;jettySize=auto;html=1;" parent="1" source="iu8bM1ByXqhOUyvsoUG0-16" target="cCrjjgJSbbAQ4UlOqyPq-1" edge="1">
          <mxGeometry relative="1" as="geometry" />
        </mxCell>
        <mxCell id="iu8bM1ByXqhOUyvsoUG0-16" value="可用余额是否大于保留数量" style="rhombus;whiteSpace=wrap;html=1;" parent="1" vertex="1">
          <mxGeometry x="-30" y="10" width="140" height="80" as="geometry" />
        </mxCell>
        <mxCell id="iu8bM1ByXqhOUyvsoUG0-81" value="" style="edgeStyle=orthogonalEdgeStyle;rounded=0;orthogonalLoop=1;jettySize=auto;html=1;" parent="1" source="iu8bM1ByXqhOUyvsoUG0-21" target="iu8bM1ByXqhOUyvsoUG0-80" edge="1">
          <mxGeometry relative="1" as="geometry" />
        </mxCell>
        <mxCell id="iu8bM1ByXqhOUyvsoUG0-83" value="" style="edgeStyle=orthogonalEdgeStyle;rounded=0;orthogonalLoop=1;jettySize=auto;html=1;" parent="1" source="iu8bM1ByXqhOUyvsoUG0-21" target="iu8bM1ByXqhOUyvsoUG0-82" edge="1">
          <mxGeometry relative="1" as="geometry" />
        </mxCell>
        <mxCell id="iu8bM1ByXqhOUyvsoUG0-21" value="低于卖一一个单位价格&amp;gt;成本价" style="rhombus;whiteSpace=wrap;html=1;" parent="1" vertex="1">
          <mxGeometry x="154" y="90" width="260" height="80" as="geometry" />
        </mxCell>
        <mxCell id="iu8bM1ByXqhOUyvsoUG0-27" value="" style="edgeStyle=orthogonalEdgeStyle;rounded=0;orthogonalLoop=1;jettySize=auto;html=1;" parent="1" source="iu8bM1ByXqhOUyvsoUG0-24" target="iu8bM1ByXqhOUyvsoUG0-26" edge="1">
          <mxGeometry relative="1" as="geometry" />
        </mxCell>
        <mxCell id="iu8bM1ByXqhOUyvsoUG0-28" style="edgeStyle=orthogonalEdgeStyle;rounded=0;orthogonalLoop=1;jettySize=auto;html=1;exitX=0;exitY=0.5;exitDx=0;exitDy=0;entryX=0.5;entryY=0;entryDx=0;entryDy=0;" parent="1" source="iu8bM1ByXqhOUyvsoUG0-24" target="iu8bM1ByXqhOUyvsoUG0-16" edge="1">
          <mxGeometry relative="1" as="geometry">
            <Array as="points">
              <mxPoint x="40" y="-390" />
              <mxPoint x="40" y="-5" />
            </Array>
          </mxGeometry>
        </mxCell>
        <mxCell id="iu8bM1ByXqhOUyvsoUG0-24" value="是否有初始成本价" style="rhombus;whiteSpace=wrap;html=1;" parent="1" vertex="1">
          <mxGeometry x="112.5" y="-490" width="130" height="100" as="geometry" />
        </mxCell>
        <mxCell id="iu8bM1ByXqhOUyvsoUG0-37" value="" style="edgeStyle=orthogonalEdgeStyle;rounded=0;orthogonalLoop=1;jettySize=auto;html=1;" parent="1" source="iu8bM1ByXqhOUyvsoUG0-26" target="iu8bM1ByXqhOUyvsoUG0-36" edge="1">
          <mxGeometry relative="1" as="geometry" />
        </mxCell>
        <mxCell id="iu8bM1ByXqhOUyvsoUG0-52" style="edgeStyle=orthogonalEdgeStyle;rounded=0;orthogonalLoop=1;jettySize=auto;html=1;exitX=1;exitY=0.5;exitDx=0;exitDy=0;entryX=0;entryY=0.5;entryDx=0;entryDy=0;" parent="1" source="iu8bM1ByXqhOUyvsoUG0-26" target="iu8bM1ByXqhOUyvsoUG0-49" edge="1">
          <mxGeometry relative="1" as="geometry" />
        </mxCell>
        <mxCell id="iu8bM1ByXqhOUyvsoUG0-26" value="是否有卖单" style="rhombus;whiteSpace=wrap;html=1;" parent="1" vertex="1">
          <mxGeometry x="110" y="-330" width="130" height="60" as="geometry" />
        </mxCell>
        <mxCell id="iu8bM1ByXqhOUyvsoUG0-32" value="" style="edgeStyle=orthogonalEdgeStyle;rounded=0;orthogonalLoop=1;jettySize=auto;html=1;" parent="1" source="iu8bM1ByXqhOUyvsoUG0-29" target="iu8bM1ByXqhOUyvsoUG0-31" edge="1">
          <mxGeometry relative="1" as="geometry" />
        </mxCell>
        <mxCell id="iu8bM1ByXqhOUyvsoUG0-40" value="" style="edgeStyle=orthogonalEdgeStyle;rounded=0;orthogonalLoop=1;jettySize=auto;html=1;" parent="1" source="iu8bM1ByXqhOUyvsoUG0-29" target="iu8bM1ByXqhOUyvsoUG0-39" edge="1">
          <mxGeometry relative="1" as="geometry" />
        </mxCell>
        <mxCell id="iu8bM1ByXqhOUyvsoUG0-29" value="最优卖价单" style="rhombus;whiteSpace=wrap;html=1;" parent="1" vertex="1">
          <mxGeometry x="284" y="-200" width="130" height="60" as="geometry" />
        </mxCell>
        <mxCell id="iu8bM1ByXqhOUyvsoUG0-31" value="取消订单" style="ellipse;whiteSpace=wrap;html=1;" parent="1" vertex="1">
          <mxGeometry x="460" y="-200" width="120" height="60" as="geometry" />
        </mxCell>
        <mxCell id="iu8bM1ByXqhOUyvsoUG0-46" value="" style="edgeStyle=orthogonalEdgeStyle;rounded=0;orthogonalLoop=1;jettySize=auto;html=1;" parent="1" source="iu8bM1ByXqhOUyvsoUG0-34" target="iu8bM1ByXqhOUyvsoUG0-45" edge="1">
          <mxGeometry relative="1" as="geometry" />
        </mxCell>
        <mxCell id="iu8bM1ByXqhOUyvsoUG0-48" value="" style="edgeStyle=orthogonalEdgeStyle;rounded=0;orthogonalLoop=1;jettySize=auto;html=1;" parent="1" source="iu8bM1ByXqhOUyvsoUG0-34" target="iu8bM1ByXqhOUyvsoUG0-47" edge="1">
          <mxGeometry relative="1" as="geometry" />
        </mxCell>
        <mxCell id="iu8bM1ByXqhOUyvsoUG0-34" value="低于卖一一个单位价格&amp;gt;成本价" style="rhombus;whiteSpace=wrap;html=1;" parent="1" vertex="1">
          <mxGeometry x="540" y="-280" width="220" height="80" as="geometry" />
        </mxCell>
        <mxCell id="iu8bM1ByXqhOUyvsoUG0-38" style="edgeStyle=orthogonalEdgeStyle;rounded=0;orthogonalLoop=1;jettySize=auto;html=1;exitX=1;exitY=0.5;exitDx=0;exitDy=0;entryX=0;entryY=0.5;entryDx=0;entryDy=0;" parent="1" source="iu8bM1ByXqhOUyvsoUG0-36" target="iu8bM1ByXqhOUyvsoUG0-29" edge="1">
          <mxGeometry relative="1" as="geometry" />
        </mxCell>
        <mxCell id="iu8bM1ByXqhOUyvsoUG0-44" value="" style="edgeStyle=orthogonalEdgeStyle;rounded=0;orthogonalLoop=1;jettySize=auto;html=1;" parent="1" source="iu8bM1ByXqhOUyvsoUG0-36" target="iu8bM1ByXqhOUyvsoUG0-43" edge="1">
          <mxGeometry relative="1" as="geometry" />
        </mxCell>
        <mxCell id="iu8bM1ByXqhOUyvsoUG0-36" value="成本价挂单?" style="rhombus;whiteSpace=wrap;html=1;" parent="1" vertex="1">
          <mxGeometry x="107.5" y="-190" width="135" height="40" as="geometry" />
        </mxCell>
        <mxCell id="iu8bM1ByXqhOUyvsoUG0-39" value="none" style="ellipse;whiteSpace=wrap;html=1;" parent="1" vertex="1">
          <mxGeometry x="289" y="-110" width="120" height="60" as="geometry" />
        </mxCell>
        <mxCell id="iu8bM1ByXqhOUyvsoUG0-43" value="站岗挂单" style="ellipse;whiteSpace=wrap;html=1;" parent="1" vertex="1">
          <mxGeometry x="115" y="-110" width="120" height="60" as="geometry" />
        </mxCell>
        <mxCell id="iu8bM1ByXqhOUyvsoUG0-45" value="用低于卖1一个单位的价格挂单卖" style="ellipse;whiteSpace=wrap;html=1;" parent="1" vertex="1">
          <mxGeometry x="580" y="-130" width="140" height="90" as="geometry" />
        </mxCell>
        <mxCell id="iu8bM1ByXqhOUyvsoUG0-47" value="成本价挂单" style="ellipse;whiteSpace=wrap;html=1;" parent="1" vertex="1">
          <mxGeometry x="810" y="-270" width="120" height="60" as="geometry" />
        </mxCell>
        <mxCell id="iu8bM1ByXqhOUyvsoUG0-53" style="edgeStyle=orthogonalEdgeStyle;rounded=0;orthogonalLoop=1;jettySize=auto;html=1;exitX=0.5;exitY=1;exitDx=0;exitDy=0;entryX=0;entryY=0.5;entryDx=0;entryDy=0;" parent="1" source="iu8bM1ByXqhOUyvsoUG0-49" target="iu8bM1ByXqhOUyvsoUG0-34" edge="1">
          <mxGeometry relative="1" as="geometry" />
        </mxCell>
        <mxCell id="iu8bM1ByXqhOUyvsoUG0-58" value="" style="edgeStyle=orthogonalEdgeStyle;rounded=0;orthogonalLoop=1;jettySize=auto;html=1;" parent="1" source="iu8bM1ByXqhOUyvsoUG0-49" target="iu8bM1ByXqhOUyvsoUG0-57" edge="1">
          <mxGeometry relative="1" as="geometry" />
        </mxCell>
        <mxCell id="iu8bM1ByXqhOUyvsoUG0-49" value="余额大于保留值" style="rhombus;whiteSpace=wrap;html=1;" parent="1" vertex="1">
          <mxGeometry x="289" y="-500" width="100" height="80" as="geometry" />
        </mxCell>
        <mxCell id="iu8bM1ByXqhOUyvsoUG0-65" value="" style="edgeStyle=orthogonalEdgeStyle;rounded=0;orthogonalLoop=1;jettySize=auto;html=1;" parent="1" source="iu8bM1ByXqhOUyvsoUG0-57" target="iu8bM1ByXqhOUyvsoUG0-64" edge="1">
          <mxGeometry relative="1" as="geometry" />
        </mxCell>
        <mxCell id="iu8bM1ByXqhOUyvsoUG0-74" value="" style="edgeStyle=orthogonalEdgeStyle;rounded=0;orthogonalLoop=1;jettySize=auto;html=1;" parent="1" source="iu8bM1ByXqhOUyvsoUG0-57" target="iu8bM1ByXqhOUyvsoUG0-73" edge="1">
          <mxGeometry relative="1" as="geometry" />
        </mxCell>
        <mxCell id="iu8bM1ByXqhOUyvsoUG0-57" value="j检查是否有套利条件" style="rhombus;whiteSpace=wrap;html=1;" parent="1" vertex="1">
          <mxGeometry x="480" y="-520" width="100" height="80" as="geometry" />
        </mxCell>
        <mxCell id="iu8bM1ByXqhOUyvsoUG0-64" value="none" style="ellipse;whiteSpace=wrap;html=1;" parent="1" vertex="1">
          <mxGeometry x="650" y="-510" width="120" height="60" as="geometry" />
        </mxCell>
        <mxCell id="iu8bM1ByXqhOUyvsoUG0-76" value="" style="edgeStyle=orthogonalEdgeStyle;rounded=0;orthogonalLoop=1;jettySize=auto;html=1;" parent="1" source="iu8bM1ByXqhOUyvsoUG0-73" target="iu8bM1ByXqhOUyvsoUG0-75" edge="1">
          <mxGeometry relative="1" as="geometry" />
        </mxCell>
        <mxCell id="iu8bM1ByXqhOUyvsoUG0-78" value="" style="edgeStyle=orthogonalEdgeStyle;rounded=0;orthogonalLoop=1;jettySize=auto;html=1;" parent="1" source="iu8bM1ByXqhOUyvsoUG0-73" target="iu8bM1ByXqhOUyvsoUG0-77" edge="1">
          <mxGeometry relative="1" as="geometry" />
        </mxCell>
        <mxCell id="iu8bM1ByXqhOUyvsoUG0-73" value="高于一个单位买入成功？" style="rhombus;whiteSpace=wrap;html=1;" parent="1" vertex="1">
          <mxGeometry x="490" y="-410" width="80" height="80" as="geometry" />
        </mxCell>
        <mxCell id="iu8bM1ByXqhOUyvsoUG0-75" value="标记成本价" style="ellipse;whiteSpace=wrap;html=1;" parent="1" vertex="1">
          <mxGeometry x="470" y="-310" width="120" height="60" as="geometry" />
        </mxCell>
        <mxCell id="iu8bM1ByXqhOUyvsoUG0-77" value="none" style="ellipse;whiteSpace=wrap;html=1;" parent="1" vertex="1">
          <mxGeometry x="630" y="-400" width="120" height="60" as="geometry" />
        </mxCell>
        <mxCell id="iu8bM1ByXqhOUyvsoUG0-80" value="用低于卖1一个单位的价格挂单卖" style="ellipse;whiteSpace=wrap;html=1;" parent="1" vertex="1">
          <mxGeometry x="224" y="240" width="120" height="60" as="geometry" />
        </mxCell>
        <mxCell id="iu8bM1ByXqhOUyvsoUG0-82" value="成本价挂单" style="ellipse;whiteSpace=wrap;html=1;" parent="1" vertex="1">
          <mxGeometry x="510" y="100" width="120" height="60" as="geometry" />
        </mxCell>
        <mxCell id="cCrjjgJSbbAQ4UlOqyPq-3" style="edgeStyle=orthogonalEdgeStyle;rounded=0;orthogonalLoop=1;jettySize=auto;html=1;exitX=1;exitY=0.5;exitDx=0;exitDy=0;entryX=0;entryY=0.5;entryDx=0;entryDy=0;" parent="1" source="cCrjjgJSbbAQ4UlOqyPq-1" target="iu8bM1ByXqhOUyvsoUG0-21" edge="1">
          <mxGeometry relative="1" as="geometry" />
        </mxCell>
        <mxCell id="cCrjjgJSbbAQ4UlOqyPq-1" value="设定成本价?买一作为成本价" style="whiteSpace=wrap;html=1;" parent="1" vertex="1">
          <mxGeometry x="-20" y="180" width="120" height="60" as="geometry" />
        </mxCell>
      </root>
    </mxGraphModel>
  </diagram>
  <diagram id="KH66DWDsaf4ZbXt8UYhP" name="第 2 页">
    <mxGraphModel dx="1434" dy="758" grid="1" gridSize="10" guides="1" tooltips="1" connect="1" arrows="1" fold="1" page="1" pageScale="1" pageWidth="827" pageHeight="1169" math="0" shadow="0">
      <root>
        <mxCell id="0" />
        <mxCell id="1" parent="0" />
        <mxCell id="gHBrXWLeLmUF-09Cx0ag-3" value="" style="edgeStyle=orthogonalEdgeStyle;rounded=0;orthogonalLoop=1;jettySize=auto;html=1;" parent="1" source="gHBrXWLeLmUF-09Cx0ag-1" target="gHBrXWLeLmUF-09Cx0ag-2" edge="1">
          <mxGeometry relative="1" as="geometry" />
        </mxCell>
        <mxCell id="gHBrXWLeLmUF-09Cx0ag-5" value="" style="edgeStyle=orthogonalEdgeStyle;rounded=0;orthogonalLoop=1;jettySize=auto;html=1;" parent="1" source="gHBrXWLeLmUF-09Cx0ag-1" target="gHBrXWLeLmUF-09Cx0ag-4" edge="1">
          <mxGeometry relative="1" as="geometry" />
        </mxCell>
        <mxCell id="gHBrXWLeLmUF-09Cx0ag-1" value="检查卖单金额是否大于阈值" style="rhombus;whiteSpace=wrap;html=1;" parent="1" vertex="1">
          <mxGeometry x="110" y="100" width="150" height="80" as="geometry" />
        </mxCell>
        <mxCell id="gHBrXWLeLmUF-09Cx0ag-2" value="不操作" style="ellipse;whiteSpace=wrap;html=1;" parent="1" vertex="1">
          <mxGeometry x="125" y="230" width="120" height="60" as="geometry" />
        </mxCell>
        <mxCell id="gHBrXWLeLmUF-09Cx0ag-7" value="" style="edgeStyle=orthogonalEdgeStyle;rounded=0;orthogonalLoop=1;jettySize=auto;html=1;" parent="1" source="gHBrXWLeLmUF-09Cx0ag-4" target="gHBrXWLeLmUF-09Cx0ag-6" edge="1">
          <mxGeometry relative="1" as="geometry" />
        </mxCell>
        <mxCell id="gHBrXWLeLmUF-09Cx0ag-4" value="检查是否符合套利提交" style="rhombus;whiteSpace=wrap;html=1;" parent="1" vertex="1">
          <mxGeometry x="340" y="100" width="150" height="80" as="geometry" />
        </mxCell>
        <mxCell id="gHBrXWLeLmUF-09Cx0ag-9" value="" style="edgeStyle=orthogonalEdgeStyle;rounded=0;orthogonalLoop=1;jettySize=auto;html=1;" parent="1" source="gHBrXWLeLmUF-09Cx0ag-6" target="gHBrXWLeLmUF-09Cx0ag-8" edge="1">
          <mxGeometry relative="1" as="geometry" />
        </mxCell>
        <mxCell id="gHBrXWLeLmUF-09Cx0ag-6" value="高于买单一个单位挂单" style="rhombus;whiteSpace=wrap;html=1;" parent="1" vertex="1">
          <mxGeometry x="340" y="210" width="150" height="80" as="geometry" />
        </mxCell>
        <mxCell id="7E8WRfQAm1rNe2kDd9eS-2" value="" style="edgeStyle=orthogonalEdgeStyle;rounded=0;orthogonalLoop=1;jettySize=auto;html=1;" parent="1" source="gHBrXWLeLmUF-09Cx0ag-8" target="7E8WRfQAm1rNe2kDd9eS-1" edge="1">
          <mxGeometry relative="1" as="geometry" />
        </mxCell>
        <mxCell id="gHBrXWLeLmUF-09Cx0ag-8" value="等待2秒" style="rhombus;whiteSpace=wrap;html=1;" parent="1" vertex="1">
          <mxGeometry x="356" y="370" width="117.5" height="80" as="geometry" />
        </mxCell>
        <mxCell id="7E8WRfQAm1rNe2kDd9eS-4" value="" style="edgeStyle=orthogonalEdgeStyle;rounded=0;orthogonalLoop=1;jettySize=auto;html=1;" parent="1" source="7E8WRfQAm1rNe2kDd9eS-1" target="7E8WRfQAm1rNe2kDd9eS-3" edge="1">
          <mxGeometry relative="1" as="geometry" />
        </mxCell>
        <mxCell id="7E8WRfQAm1rNe2kDd9eS-14" value="" style="edgeStyle=orthogonalEdgeStyle;rounded=0;orthogonalLoop=1;jettySize=auto;html=1;" parent="1" source="7E8WRfQAm1rNe2kDd9eS-1" target="7E8WRfQAm1rNe2kDd9eS-13" edge="1">
          <mxGeometry relative="1" as="geometry" />
        </mxCell>
        <mxCell id="7E8WRfQAm1rNe2kDd9eS-1" value="检测成交量" style="rhombus;whiteSpace=wrap;html=1;" parent="1" vertex="1">
          <mxGeometry x="374.75" y="530" width="80" height="80" as="geometry" />
        </mxCell>
        <mxCell id="7E8WRfQAm1rNe2kDd9eS-6" value="" style="edgeStyle=orthogonalEdgeStyle;rounded=0;orthogonalLoop=1;jettySize=auto;html=1;" parent="1" source="7E8WRfQAm1rNe2kDd9eS-3" target="7E8WRfQAm1rNe2kDd9eS-5" edge="1">
          <mxGeometry relative="1" as="geometry" />
        </mxCell>
        <mxCell id="7E8WRfQAm1rNe2kDd9eS-8" value="" style="edgeStyle=orthogonalEdgeStyle;rounded=0;orthogonalLoop=1;jettySize=auto;html=1;" parent="1" source="7E8WRfQAm1rNe2kDd9eS-3" target="7E8WRfQAm1rNe2kDd9eS-7" edge="1">
          <mxGeometry relative="1" as="geometry" />
        </mxCell>
        <mxCell id="7E8WRfQAm1rNe2kDd9eS-3" value="当前价格-单位价格&amp;gt;买价？" style="rhombus;whiteSpace=wrap;html=1;" parent="1" vertex="1">
          <mxGeometry x="374.75" y="690" width="80" height="80" as="geometry" />
        </mxCell>
        <mxCell id="7E8WRfQAm1rNe2kDd9eS-5" value="挂出卖单" style="rhombus;whiteSpace=wrap;html=1;" parent="1" vertex="1">
          <mxGeometry x="374.75" y="850" width="80" height="80" as="geometry" />
        </mxCell>
        <mxCell id="7E8WRfQAm1rNe2kDd9eS-7" value="买价挂出" style="rhombus;whiteSpace=wrap;html=1;" parent="1" vertex="1">
          <mxGeometry x="534.75" y="690" width="80" height="80" as="geometry" />
        </mxCell>
        <mxCell id="7E8WRfQAm1rNe2kDd9eS-13" value="取消订单" style="ellipse;whiteSpace=wrap;html=1;" parent="1" vertex="1">
          <mxGeometry x="514.75" y="540" width="120" height="60" as="geometry" />
        </mxCell>
      </root>
    </mxGraphModel>
  </diagram>
  <diagram id="YQm5VOYWzzbPvmgLPWv8" name="自动值守卖">
    <mxGraphModel dx="1434" dy="758" grid="1" gridSize="10" guides="1" tooltips="1" connect="1" arrows="1" fold="1" page="1" pageScale="1" pageWidth="827" pageHeight="1169" math="0" shadow="0">
      <root>
        <mxCell id="0" />
        <mxCell id="1" parent="0" />
        <mxCell id="1-Ne3fjdjtvJDrqkzx4r-2" value="" style="edgeStyle=orthogonalEdgeStyle;rounded=0;orthogonalLoop=1;jettySize=auto;html=1;" parent="1" source="fJ2qhnuOo_csNxi3AWTc-8" target="1-Ne3fjdjtvJDrqkzx4r-1" edge="1">
          <mxGeometry relative="1" as="geometry" />
        </mxCell>
        <mxCell id="1-Ne3fjdjtvJDrqkzx4r-22" style="edgeStyle=orthogonalEdgeStyle;rounded=0;orthogonalLoop=1;jettySize=auto;html=1;exitX=0.5;exitY=1;exitDx=0;exitDy=0;entryX=0;entryY=0.5;entryDx=0;entryDy=0;" parent="1" source="fJ2qhnuOo_csNxi3AWTc-8" target="1-Ne3fjdjtvJDrqkzx4r-13" edge="1">
          <mxGeometry relative="1" as="geometry" />
        </mxCell>
        <mxCell id="fJ2qhnuOo_csNxi3AWTc-8" value="余额&amp;gt;1U?" style="rhombus;whiteSpace=wrap;html=1;" parent="1" vertex="1">
          <mxGeometry x="120" y="170" width="80" height="80" as="geometry" />
        </mxCell>
        <mxCell id="1-Ne3fjdjtvJDrqkzx4r-5" value="" style="edgeStyle=orthogonalEdgeStyle;rounded=0;orthogonalLoop=1;jettySize=auto;html=1;" parent="1" source="1-Ne3fjdjtvJDrqkzx4r-1" target="1-Ne3fjdjtvJDrqkzx4r-4" edge="1">
          <mxGeometry relative="1" as="geometry" />
        </mxCell>
        <mxCell id="1-Ne3fjdjtvJDrqkzx4r-17" style="edgeStyle=orthogonalEdgeStyle;rounded=0;orthogonalLoop=1;jettySize=auto;html=1;exitX=1;exitY=0.5;exitDx=0;exitDy=0;" parent="1" source="1-Ne3fjdjtvJDrqkzx4r-1" edge="1">
          <mxGeometry relative="1" as="geometry">
            <mxPoint x="420" y="210" as="targetPoint" />
          </mxGeometry>
        </mxCell>
        <mxCell id="1-Ne3fjdjtvJDrqkzx4r-1" value="是否有卖单" style="rhombus;whiteSpace=wrap;html=1;" parent="1" vertex="1">
          <mxGeometry x="280" y="170" width="80" height="80" as="geometry" />
        </mxCell>
        <mxCell id="1-Ne3fjdjtvJDrqkzx4r-14" value="" style="edgeStyle=orthogonalEdgeStyle;rounded=0;orthogonalLoop=1;jettySize=auto;html=1;" parent="1" source="1-Ne3fjdjtvJDrqkzx4r-4" target="1-Ne3fjdjtvJDrqkzx4r-13" edge="1">
          <mxGeometry relative="1" as="geometry" />
        </mxCell>
        <mxCell id="1-Ne3fjdjtvJDrqkzx4r-16" value="" style="edgeStyle=orthogonalEdgeStyle;rounded=0;orthogonalLoop=1;jettySize=auto;html=1;" parent="1" source="1-Ne3fjdjtvJDrqkzx4r-4" target="1-Ne3fjdjtvJDrqkzx4r-15" edge="1">
          <mxGeometry relative="1" as="geometry" />
        </mxCell>
        <mxCell id="1-Ne3fjdjtvJDrqkzx4r-4" value="卖的价格→&lt;br&gt;最优价，且最优价&amp;gt;成本价" style="rhombus;whiteSpace=wrap;html=1;" parent="1" vertex="1">
          <mxGeometry x="192.5" y="290" width="255" height="80" as="geometry" />
        </mxCell>
        <mxCell id="1-Ne3fjdjtvJDrqkzx4r-13" value="none" style="ellipse;whiteSpace=wrap;html=1;" parent="1" vertex="1">
          <mxGeometry x="280" y="410" width="80" height="80" as="geometry" />
        </mxCell>
        <mxCell id="1-Ne3fjdjtvJDrqkzx4r-15" value="cancel" style="ellipse;whiteSpace=wrap;html=1;" parent="1" vertex="1">
          <mxGeometry x="550" y="290" width="80" height="80" as="geometry" />
        </mxCell>
        <mxCell id="1-Ne3fjdjtvJDrqkzx4r-21" value="" style="edgeStyle=orthogonalEdgeStyle;rounded=0;orthogonalLoop=1;jettySize=auto;html=1;" parent="1" source="1-Ne3fjdjtvJDrqkzx4r-18" target="1-Ne3fjdjtvJDrqkzx4r-20" edge="1">
          <mxGeometry relative="1" as="geometry" />
        </mxCell>
        <mxCell id="1-Ne3fjdjtvJDrqkzx4r-18" value="最优价&amp;gt;成本价" style="rhombus;whiteSpace=wrap;html=1;" parent="1" vertex="1">
          <mxGeometry x="420" y="170" width="80" height="80" as="geometry" />
        </mxCell>
        <mxCell id="1-Ne3fjdjtvJDrqkzx4r-20" value="最优价挂单" style="ellipse;whiteSpace=wrap;html=1;" parent="1" vertex="1">
          <mxGeometry x="580" y="170" width="80" height="80" as="geometry" />
        </mxCell>
        <mxCell id="k_mday8QHVFdu-YOmtvz-2" value="" style="edgeStyle=orthogonalEdgeStyle;rounded=0;orthogonalLoop=1;jettySize=auto;html=1;" edge="1" parent="1" source="Bx2r6-s9FqVLe23QkWZG-1" target="k_mday8QHVFdu-YOmtvz-1">
          <mxGeometry relative="1" as="geometry" />
        </mxCell>
        <mxCell id="Bx2r6-s9FqVLe23QkWZG-1" value="余额&amp;gt;1U?" style="rhombus;whiteSpace=wrap;html=1;" vertex="1" parent="1">
          <mxGeometry x="150" y="690" width="80" height="80" as="geometry" />
        </mxCell>
        <mxCell id="uiFnEGhwyWiKWuChcElR-2" value="" style="edgeStyle=orthogonalEdgeStyle;rounded=0;orthogonalLoop=1;jettySize=auto;html=1;" edge="1" parent="1" source="k_mday8QHVFdu-YOmtvz-1" target="uiFnEGhwyWiKWuChcElR-1">
          <mxGeometry relative="1" as="geometry" />
        </mxCell>
        <mxCell id="-IKfCLVlJEL8kpcq-90y-2" value="" style="edgeStyle=orthogonalEdgeStyle;rounded=0;orthogonalLoop=1;jettySize=auto;html=1;" edge="1" parent="1" source="k_mday8QHVFdu-YOmtvz-1" target="-IKfCLVlJEL8kpcq-90y-1">
          <mxGeometry relative="1" as="geometry" />
        </mxCell>
        <mxCell id="k_mday8QHVFdu-YOmtvz-1" value="最优价&amp;gt;成本价" style="rhombus;whiteSpace=wrap;html=1;" vertex="1" parent="1">
          <mxGeometry x="310" y="690" width="80" height="80" as="geometry" />
        </mxCell>
        <mxCell id="uiFnEGhwyWiKWuChcElR-1" value="none" style="ellipse;whiteSpace=wrap;html=1;" vertex="1" parent="1">
          <mxGeometry x="470" y="690" width="80" height="80" as="geometry" />
        </mxCell>
        <mxCell id="-IKfCLVlJEL8kpcq-90y-1" value="理论卖价=最优价" style="ellipse;whiteSpace=wrap;html=1;" vertex="1" parent="1">
          <mxGeometry x="310" y="850" width="80" height="80" as="geometry" />
        </mxCell>
        <mxCell id="fndMEEETLG22ZGy4Pncn-1" value="" style="edgeStyle=orthogonalEdgeStyle;rounded=0;orthogonalLoop=1;jettySize=auto;html=1;" edge="1" parent="1" source="fndMEEETLG22ZGy4Pncn-3" target="fndMEEETLG22ZGy4Pncn-9">
          <mxGeometry relative="1" as="geometry" />
        </mxCell>
        <mxCell id="fndMEEETLG22ZGy4Pncn-2" style="edgeStyle=orthogonalEdgeStyle;rounded=0;orthogonalLoop=1;jettySize=auto;html=1;exitX=0.5;exitY=1;exitDx=0;exitDy=0;entryX=0.5;entryY=0;entryDx=0;entryDy=0;" edge="1" parent="1" source="fndMEEETLG22ZGy4Pncn-3" target="fndMEEETLG22ZGy4Pncn-6">
          <mxGeometry relative="1" as="geometry" />
        </mxCell>
        <mxCell id="fndMEEETLG22ZGy4Pncn-3" value="有单" style="rhombus;whiteSpace=wrap;html=1;" vertex="1" parent="1">
          <mxGeometry x="185" y="1170" width="80" height="80" as="geometry" />
        </mxCell>
        <mxCell id="fndMEEETLG22ZGy4Pncn-4" value="" style="edgeStyle=orthogonalEdgeStyle;rounded=0;orthogonalLoop=1;jettySize=auto;html=1;" edge="1" parent="1" source="fndMEEETLG22ZGy4Pncn-6" target="fndMEEETLG22ZGy4Pncn-7">
          <mxGeometry relative="1" as="geometry" />
        </mxCell>
        <mxCell id="fndMEEETLG22ZGy4Pncn-5" value="" style="edgeStyle=orthogonalEdgeStyle;rounded=0;orthogonalLoop=1;jettySize=auto;html=1;" edge="1" parent="1" source="fndMEEETLG22ZGy4Pncn-6" target="fndMEEETLG22ZGy4Pncn-8">
          <mxGeometry relative="1" as="geometry" />
        </mxCell>
        <mxCell id="fndMEEETLG22ZGy4Pncn-6" value="当前卖价=理论卖价" style="rhombus;whiteSpace=wrap;html=1;" vertex="1" parent="1">
          <mxGeometry x="185" y="1310" width="80" height="80" as="geometry" />
        </mxCell>
        <mxCell id="fndMEEETLG22ZGy4Pncn-7" value="none" style="ellipse;whiteSpace=wrap;html=1;" vertex="1" parent="1">
          <mxGeometry x="185" y="1450" width="80" height="80" as="geometry" />
        </mxCell>
        <mxCell id="fndMEEETLG22ZGy4Pncn-8" value="cancel" style="ellipse;whiteSpace=wrap;html=1;" vertex="1" parent="1">
          <mxGeometry x="350" y="1310" width="80" height="80" as="geometry" />
        </mxCell>
        <mxCell id="fndMEEETLG22ZGy4Pncn-9" value="理论卖价挂单" style="ellipse;whiteSpace=wrap;html=1;" vertex="1" parent="1">
          <mxGeometry x="350" y="1170" width="80" height="80" as="geometry" />
        </mxCell>
        <mxCell id="fndMEEETLG22ZGy4Pncn-10" style="edgeStyle=orthogonalEdgeStyle;rounded=0;orthogonalLoop=1;jettySize=auto;html=1;exitX=0.5;exitY=1;exitDx=0;exitDy=0;entryX=0.5;entryY=0;entryDx=0;entryDy=0;" edge="1" parent="1" source="fndMEEETLG22ZGy4Pncn-12" target="fndMEEETLG22ZGy4Pncn-3">
          <mxGeometry relative="1" as="geometry" />
        </mxCell>
        <mxCell id="fndMEEETLG22ZGy4Pncn-11" value="" style="edgeStyle=orthogonalEdgeStyle;rounded=0;orthogonalLoop=1;jettySize=auto;html=1;" edge="1" parent="1" source="fndMEEETLG22ZGy4Pncn-12" target="fndMEEETLG22ZGy4Pncn-15">
          <mxGeometry relative="1" as="geometry" />
        </mxCell>
        <mxCell id="fndMEEETLG22ZGy4Pncn-12" value="理论价格&amp;gt;成本价" style="rhombus;whiteSpace=wrap;html=1;" vertex="1" parent="1">
          <mxGeometry x="185" y="970" width="80" height="80" as="geometry" />
        </mxCell>
        <mxCell id="fndMEEETLG22ZGy4Pncn-13" value="" style="edgeStyle=orthogonalEdgeStyle;rounded=0;orthogonalLoop=1;jettySize=auto;html=1;" edge="1" parent="1" source="fndMEEETLG22ZGy4Pncn-15" target="fndMEEETLG22ZGy4Pncn-16">
          <mxGeometry relative="1" as="geometry" />
        </mxCell>
        <mxCell id="fndMEEETLG22ZGy4Pncn-14" value="" style="edgeStyle=orthogonalEdgeStyle;rounded=0;orthogonalLoop=1;jettySize=auto;html=1;" edge="1" parent="1" source="fndMEEETLG22ZGy4Pncn-15" target="fndMEEETLG22ZGy4Pncn-17">
          <mxGeometry relative="1" as="geometry" />
        </mxCell>
        <mxCell id="fndMEEETLG22ZGy4Pncn-15" value="有单" style="rhombus;whiteSpace=wrap;html=1;" vertex="1" parent="1">
          <mxGeometry x="340" y="970" width="80" height="80" as="geometry" />
        </mxCell>
        <mxCell id="fndMEEETLG22ZGy4Pncn-16" value="cancel" style="ellipse;whiteSpace=wrap;html=1;" vertex="1" parent="1">
          <mxGeometry x="340" y="1070" width="80" height="80" as="geometry" />
        </mxCell>
        <mxCell id="fndMEEETLG22ZGy4Pncn-17" value="none" style="ellipse;whiteSpace=wrap;html=1;" vertex="1" parent="1">
          <mxGeometry x="500" y="970" width="80" height="80" as="geometry" />
        </mxCell>
      </root>
    </mxGraphModel>
  </diagram>
  <diagram id="4Jsq_YQpNFoPdY9GSdEJ" name="保本卖">
    <mxGraphModel dx="1434" dy="758" grid="1" gridSize="10" guides="1" tooltips="1" connect="1" arrows="1" fold="1" page="1" pageScale="1" pageWidth="827" pageHeight="1169" math="0" shadow="0">
      <root>
        <mxCell id="0" />
        <mxCell id="1" parent="0" />
        <mxCell id="vcfz8dcJgRuRxtmXSKlF-2" style="edgeStyle=orthogonalEdgeStyle;rounded=0;orthogonalLoop=1;jettySize=auto;html=1;exitX=1;exitY=0.5;exitDx=0;exitDy=0;entryX=0;entryY=0.5;entryDx=0;entryDy=0;" parent="1" source="bQWhDI4ocFbW0dXNcknD-1" target="vcfz8dcJgRuRxtmXSKlF-1" edge="1">
          <mxGeometry relative="1" as="geometry" />
        </mxCell>
        <mxCell id="LsQwHoaM-6JSEDIic2pL-2" style="edgeStyle=orthogonalEdgeStyle;rounded=0;orthogonalLoop=1;jettySize=auto;html=1;exitX=0.5;exitY=1;exitDx=0;exitDy=0;entryX=0;entryY=0.5;entryDx=0;entryDy=0;" parent="1" source="bQWhDI4ocFbW0dXNcknD-1" target="LsQwHoaM-6JSEDIic2pL-1" edge="1">
          <mxGeometry relative="1" as="geometry" />
        </mxCell>
        <mxCell id="bQWhDI4ocFbW0dXNcknD-1" value="余额&amp;gt;1U?" style="rhombus;whiteSpace=wrap;html=1;" parent="1" vertex="1">
          <mxGeometry x="120" y="170" width="80" height="80" as="geometry" />
        </mxCell>
        <mxCell id="H78mBZAbwPkUxkoYHbec-2" value="" style="edgeStyle=orthogonalEdgeStyle;rounded=0;orthogonalLoop=1;jettySize=auto;html=1;" parent="1" source="vcfz8dcJgRuRxtmXSKlF-1" target="H78mBZAbwPkUxkoYHbec-1" edge="1">
          <mxGeometry relative="1" as="geometry" />
        </mxCell>
        <mxCell id="WbBXAv60nEMPJVs8MH4D-2" value="" style="edgeStyle=orthogonalEdgeStyle;rounded=0;orthogonalLoop=1;jettySize=auto;html=1;" parent="1" source="vcfz8dcJgRuRxtmXSKlF-1" target="WbBXAv60nEMPJVs8MH4D-1" edge="1">
          <mxGeometry relative="1" as="geometry" />
        </mxCell>
        <mxCell id="vcfz8dcJgRuRxtmXSKlF-1" value="是否有卖单" style="rhombus;whiteSpace=wrap;html=1;" parent="1" vertex="1">
          <mxGeometry x="280" y="170" width="80" height="80" as="geometry" />
        </mxCell>
        <mxCell id="5OtJqkmcg86EViWgAWfq-2" value="" style="edgeStyle=orthogonalEdgeStyle;rounded=0;orthogonalLoop=1;jettySize=auto;html=1;" parent="1" source="H78mBZAbwPkUxkoYHbec-1" edge="1">
          <mxGeometry relative="1" as="geometry">
            <mxPoint x="320" y="490" as="targetPoint" />
          </mxGeometry>
        </mxCell>
        <mxCell id="jh_3XGVlxIlWF4SVT10v-3" value="" style="edgeStyle=orthogonalEdgeStyle;rounded=0;orthogonalLoop=1;jettySize=auto;html=1;" parent="1" source="H78mBZAbwPkUxkoYHbec-1" target="jh_3XGVlxIlWF4SVT10v-2" edge="1">
          <mxGeometry relative="1" as="geometry" />
        </mxCell>
        <mxCell id="H78mBZAbwPkUxkoYHbec-1" value="卖1=卖价且 卖价&amp;gt;成本价" style="rhombus;whiteSpace=wrap;html=1;" parent="1" vertex="1">
          <mxGeometry x="280" y="330" width="80" height="80" as="geometry" />
        </mxCell>
        <mxCell id="LsQwHoaM-6JSEDIic2pL-1" value="none" style="ellipse;whiteSpace=wrap;html=1;" parent="1" vertex="1">
          <mxGeometry x="280" y="490" width="80" height="80" as="geometry" />
        </mxCell>
        <mxCell id="jh_3XGVlxIlWF4SVT10v-2" value="cancel" style="ellipse;whiteSpace=wrap;html=1;" parent="1" vertex="1">
          <mxGeometry x="440" y="330" width="80" height="80" as="geometry" />
        </mxCell>
        <mxCell id="IvYHuXxpdUcNLA0Tw6FK-4" value="" style="edgeStyle=orthogonalEdgeStyle;rounded=0;orthogonalLoop=1;jettySize=auto;html=1;" parent="1" source="WbBXAv60nEMPJVs8MH4D-1" target="IvYHuXxpdUcNLA0Tw6FK-3" edge="1">
          <mxGeometry relative="1" as="geometry" />
        </mxCell>
        <mxCell id="WbBXAv60nEMPJVs8MH4D-1" value="卖价&amp;gt;成本价" style="rhombus;whiteSpace=wrap;html=1;" parent="1" vertex="1">
          <mxGeometry x="440" y="170" width="80" height="80" as="geometry" />
        </mxCell>
        <mxCell id="IvYHuXxpdUcNLA0Tw6FK-3" value="低于卖价一个点挂单" style="ellipse;whiteSpace=wrap;html=1;" parent="1" vertex="1">
          <mxGeometry x="600" y="170" width="80" height="80" as="geometry" />
        </mxCell>
      </root>
    </mxGraphModel>
  </diagram>
  <diagram id="RRLbpfoMrjvM2p5ERN7J" name="混合模式">
    <mxGraphModel dx="1434" dy="758" grid="1" gridSize="10" guides="1" tooltips="1" connect="1" arrows="1" fold="1" page="1" pageScale="1" pageWidth="827" pageHeight="1169" math="0" shadow="0">
      <root>
        <mxCell id="0" />
        <mxCell id="1" parent="0" />
        <mxCell id="3Atc1OJ-ObIxJo4qjw3L-1" style="edgeStyle=orthogonalEdgeStyle;rounded=0;orthogonalLoop=1;jettySize=auto;html=1;exitX=1;exitY=0.5;exitDx=0;exitDy=0;entryX=0;entryY=0.5;entryDx=0;entryDy=0;" parent="1" source="3Atc1OJ-ObIxJo4qjw3L-3" target="3Atc1OJ-ObIxJo4qjw3L-6" edge="1">
          <mxGeometry relative="1" as="geometry" />
        </mxCell>
        <mxCell id="3Atc1OJ-ObIxJo4qjw3L-2" style="edgeStyle=orthogonalEdgeStyle;rounded=0;orthogonalLoop=1;jettySize=auto;html=1;exitX=0.5;exitY=1;exitDx=0;exitDy=0;entryX=0;entryY=0.5;entryDx=0;entryDy=0;" parent="1" source="3Atc1OJ-ObIxJo4qjw3L-3" target="3Atc1OJ-ObIxJo4qjw3L-10" edge="1">
          <mxGeometry relative="1" as="geometry" />
        </mxCell>
        <mxCell id="3Atc1OJ-ObIxJo4qjw3L-3" value="余额&amp;gt;1U?" style="rhombus;whiteSpace=wrap;html=1;" parent="1" vertex="1">
          <mxGeometry x="120" y="170" width="80" height="80" as="geometry" />
        </mxCell>
        <mxCell id="3Atc1OJ-ObIxJo4qjw3L-4" value="" style="edgeStyle=orthogonalEdgeStyle;rounded=0;orthogonalLoop=1;jettySize=auto;html=1;" parent="1" source="3Atc1OJ-ObIxJo4qjw3L-6" target="3Atc1OJ-ObIxJo4qjw3L-9" edge="1">
          <mxGeometry relative="1" as="geometry" />
        </mxCell>
        <mxCell id="3Atc1OJ-ObIxJo4qjw3L-5" value="" style="edgeStyle=orthogonalEdgeStyle;rounded=0;orthogonalLoop=1;jettySize=auto;html=1;" parent="1" source="3Atc1OJ-ObIxJo4qjw3L-6" target="3Atc1OJ-ObIxJo4qjw3L-13" edge="1">
          <mxGeometry relative="1" as="geometry" />
        </mxCell>
        <mxCell id="3Atc1OJ-ObIxJo4qjw3L-6" value="是否有卖单" style="rhombus;whiteSpace=wrap;html=1;" parent="1" vertex="1">
          <mxGeometry x="280" y="170" width="80" height="80" as="geometry" />
        </mxCell>
        <mxCell id="4XdBwHwUQS5oedmEY98Q-4" value="" style="edgeStyle=orthogonalEdgeStyle;rounded=0;orthogonalLoop=1;jettySize=auto;html=1;" parent="1" source="3Atc1OJ-ObIxJo4qjw3L-9" edge="1">
          <mxGeometry relative="1" as="geometry">
            <mxPoint x="320" y="470" as="targetPoint" />
          </mxGeometry>
        </mxCell>
        <mxCell id="4XdBwHwUQS5oedmEY98Q-6" value="" style="edgeStyle=orthogonalEdgeStyle;rounded=0;orthogonalLoop=1;jettySize=auto;html=1;" parent="1" source="3Atc1OJ-ObIxJo4qjw3L-9" target="4XdBwHwUQS5oedmEY98Q-5" edge="1">
          <mxGeometry relative="1" as="geometry" />
        </mxCell>
        <mxCell id="3Atc1OJ-ObIxJo4qjw3L-9" value="最优价&amp;gt;成本价 且 卖1价&amp;gt;最优价 且 误差大于 1‰" style="rhombus;whiteSpace=wrap;html=1;" parent="1" vertex="1">
          <mxGeometry x="255" y="310" width="130" height="80" as="geometry" />
        </mxCell>
        <mxCell id="3Atc1OJ-ObIxJo4qjw3L-10" value="none" style="ellipse;whiteSpace=wrap;html=1;" parent="1" vertex="1">
          <mxGeometry x="280" y="680" width="80" height="80" as="geometry" />
        </mxCell>
        <mxCell id="3Atc1OJ-ObIxJo4qjw3L-12" value="" style="edgeStyle=orthogonalEdgeStyle;rounded=0;orthogonalLoop=1;jettySize=auto;html=1;" parent="1" source="3Atc1OJ-ObIxJo4qjw3L-13" target="3Atc1OJ-ObIxJo4qjw3L-14" edge="1">
          <mxGeometry relative="1" as="geometry" />
        </mxCell>
        <mxCell id="3Atc1OJ-ObIxJo4qjw3L-13" value="最优价&amp;gt;成本价 且 卖价&amp;gt;成本价" style="rhombus;whiteSpace=wrap;html=1;" parent="1" vertex="1">
          <mxGeometry x="540" y="170" width="120" height="80" as="geometry" />
        </mxCell>
        <mxCell id="3Atc1OJ-ObIxJo4qjw3L-14" value="低于卖价一个点挂单" style="ellipse;whiteSpace=wrap;html=1;" parent="1" vertex="1">
          <mxGeometry x="840" y="170" width="80" height="80" as="geometry" />
        </mxCell>
        <mxCell id="4XdBwHwUQS5oedmEY98Q-8" value="" style="edgeStyle=orthogonalEdgeStyle;rounded=0;orthogonalLoop=1;jettySize=auto;html=1;" parent="1" source="4XdBwHwUQS5oedmEY98Q-5" target="4XdBwHwUQS5oedmEY98Q-7" edge="1">
          <mxGeometry relative="1" as="geometry" />
        </mxCell>
        <mxCell id="4XdBwHwUQS5oedmEY98Q-19" value="" style="edgeStyle=orthogonalEdgeStyle;rounded=0;orthogonalLoop=1;jettySize=auto;html=1;" parent="1" source="4XdBwHwUQS5oedmEY98Q-5" target="4XdBwHwUQS5oedmEY98Q-18" edge="1">
          <mxGeometry relative="1" as="geometry" />
        </mxCell>
        <mxCell id="4XdBwHwUQS5oedmEY98Q-5" value="卖1价&amp;gt;成本价 且 最优价&amp;gt;成本价" style="rhombus;whiteSpace=wrap;html=1;" parent="1" vertex="1">
          <mxGeometry x="490" y="310" width="140" height="80" as="geometry" />
        </mxCell>
        <mxCell id="4XdBwHwUQS5oedmEY98Q-10" value="" style="edgeStyle=orthogonalEdgeStyle;rounded=0;orthogonalLoop=1;jettySize=auto;html=1;" parent="1" source="4XdBwHwUQS5oedmEY98Q-7" target="4XdBwHwUQS5oedmEY98Q-9" edge="1">
          <mxGeometry relative="1" as="geometry" />
        </mxCell>
        <mxCell id="4XdBwHwUQS5oedmEY98Q-12" value="" style="edgeStyle=orthogonalEdgeStyle;rounded=0;orthogonalLoop=1;jettySize=auto;html=1;" parent="1" source="4XdBwHwUQS5oedmEY98Q-7" target="4XdBwHwUQS5oedmEY98Q-11" edge="1">
          <mxGeometry relative="1" as="geometry" />
        </mxCell>
        <mxCell id="4XdBwHwUQS5oedmEY98Q-7" value="卖价=卖1价" style="rhombus;whiteSpace=wrap;html=1;" parent="1" vertex="1">
          <mxGeometry x="520" y="470" width="80" height="80" as="geometry" />
        </mxCell>
        <mxCell id="4XdBwHwUQS5oedmEY98Q-9" value="none" style="ellipse;whiteSpace=wrap;html=1;" parent="1" vertex="1">
          <mxGeometry x="520" y="630" width="80" height="80" as="geometry" />
        </mxCell>
        <mxCell id="4XdBwHwUQS5oedmEY98Q-11" value="cancel" style="ellipse;whiteSpace=wrap;html=1;" parent="1" vertex="1">
          <mxGeometry x="680" y="470" width="80" height="80" as="geometry" />
        </mxCell>
        <mxCell id="4XdBwHwUQS5oedmEY98Q-14" style="edgeStyle=orthogonalEdgeStyle;rounded=0;orthogonalLoop=1;jettySize=auto;html=1;exitX=0.5;exitY=1;exitDx=0;exitDy=0;" parent="1" source="4XdBwHwUQS5oedmEY98Q-13" target="3Atc1OJ-ObIxJo4qjw3L-10" edge="1">
          <mxGeometry relative="1" as="geometry" />
        </mxCell>
        <mxCell id="4XdBwHwUQS5oedmEY98Q-17" value="" style="edgeStyle=orthogonalEdgeStyle;rounded=0;orthogonalLoop=1;jettySize=auto;html=1;" parent="1" source="4XdBwHwUQS5oedmEY98Q-13" target="4XdBwHwUQS5oedmEY98Q-16" edge="1">
          <mxGeometry relative="1" as="geometry" />
        </mxCell>
        <mxCell id="4XdBwHwUQS5oedmEY98Q-13" value="卖价=卖1价" style="rhombus;whiteSpace=wrap;html=1;" parent="1" vertex="1">
          <mxGeometry x="280" y="470" width="80" height="80" as="geometry" />
        </mxCell>
        <mxCell id="4XdBwHwUQS5oedmEY98Q-16" value="cancel" style="ellipse;whiteSpace=wrap;html=1;" parent="1" vertex="1">
          <mxGeometry x="400" y="470" width="80" height="80" as="geometry" />
        </mxCell>
        <mxCell id="4XdBwHwUQS5oedmEY98Q-21" value="" style="edgeStyle=orthogonalEdgeStyle;rounded=0;orthogonalLoop=1;jettySize=auto;html=1;" parent="1" source="4XdBwHwUQS5oedmEY98Q-18" target="4XdBwHwUQS5oedmEY98Q-20" edge="1">
          <mxGeometry relative="1" as="geometry" />
        </mxCell>
        <mxCell id="4XdBwHwUQS5oedmEY98Q-18" value="成本&amp;gt;最优价 且买1价格&amp;gt;成本" style="rhombus;whiteSpace=wrap;html=1;" parent="1" vertex="1">
          <mxGeometry x="910" y="310" width="140" height="80" as="geometry" />
        </mxCell>
        <mxCell id="4XdBwHwUQS5oedmEY98Q-23" value="" style="edgeStyle=orthogonalEdgeStyle;rounded=0;orthogonalLoop=1;jettySize=auto;html=1;" parent="1" source="4XdBwHwUQS5oedmEY98Q-20" target="4XdBwHwUQS5oedmEY98Q-22" edge="1">
          <mxGeometry relative="1" as="geometry" />
        </mxCell>
        <mxCell id="4XdBwHwUQS5oedmEY98Q-25" value="" style="edgeStyle=orthogonalEdgeStyle;rounded=0;orthogonalLoop=1;jettySize=auto;html=1;" parent="1" source="4XdBwHwUQS5oedmEY98Q-20" target="4XdBwHwUQS5oedmEY98Q-24" edge="1">
          <mxGeometry relative="1" as="geometry" />
        </mxCell>
        <mxCell id="4XdBwHwUQS5oedmEY98Q-20" value="卖价=买1价？" style="rhombus;whiteSpace=wrap;html=1;" parent="1" vertex="1">
          <mxGeometry x="940" y="470" width="80" height="80" as="geometry" />
        </mxCell>
        <mxCell id="4XdBwHwUQS5oedmEY98Q-22" value="none" style="ellipse;whiteSpace=wrap;html=1;" parent="1" vertex="1">
          <mxGeometry x="940" y="630" width="80" height="80" as="geometry" />
        </mxCell>
        <mxCell id="4XdBwHwUQS5oedmEY98Q-24" value="cancel" style="ellipse;whiteSpace=wrap;html=1;" parent="1" vertex="1">
          <mxGeometry x="1100" y="470" width="80" height="80" as="geometry" />
        </mxCell>
        <mxCell id="4XdBwHwUQS5oedmEY98Q-28" style="edgeStyle=orthogonalEdgeStyle;rounded=0;orthogonalLoop=1;jettySize=auto;html=1;exitX=1;exitY=0.5;exitDx=0;exitDy=0;entryX=0;entryY=0.5;entryDx=0;entryDy=0;" parent="1" source="4XdBwHwUQS5oedmEY98Q-26" target="4XdBwHwUQS5oedmEY98Q-27" edge="1">
          <mxGeometry relative="1" as="geometry" />
        </mxCell>
        <mxCell id="4XdBwHwUQS5oedmEY98Q-26" value="余额&amp;gt;1U?" style="rhombus;whiteSpace=wrap;html=1;" parent="1" vertex="1">
          <mxGeometry x="40" y="980" width="80" height="80" as="geometry" />
        </mxCell>
        <mxCell id="4XdBwHwUQS5oedmEY98Q-30" value="" style="edgeStyle=orthogonalEdgeStyle;rounded=0;orthogonalLoop=1;jettySize=auto;html=1;" parent="1" source="4XdBwHwUQS5oedmEY98Q-27" target="4XdBwHwUQS5oedmEY98Q-29" edge="1">
          <mxGeometry relative="1" as="geometry" />
        </mxCell>
        <mxCell id="4XdBwHwUQS5oedmEY98Q-32" style="edgeStyle=orthogonalEdgeStyle;rounded=0;orthogonalLoop=1;jettySize=auto;html=1;exitX=1;exitY=0.5;exitDx=0;exitDy=0;entryX=0;entryY=0.5;entryDx=0;entryDy=0;" parent="1" source="4XdBwHwUQS5oedmEY98Q-27" target="4XdBwHwUQS5oedmEY98Q-31" edge="1">
          <mxGeometry relative="1" as="geometry" />
        </mxCell>
        <mxCell id="4XdBwHwUQS5oedmEY98Q-27" value="最优价&amp;gt;卖1" style="rhombus;whiteSpace=wrap;html=1;" parent="1" vertex="1">
          <mxGeometry x="370" y="980" width="130" height="80" as="geometry" />
        </mxCell>
        <mxCell id="4XdBwHwUQS5oedmEY98Q-29" value="理论卖价=卖1" style="ellipse;whiteSpace=wrap;html=1;" parent="1" vertex="1">
          <mxGeometry x="395" y="1140" width="80" height="80" as="geometry" />
        </mxCell>
        <mxCell id="4XdBwHwUQS5oedmEY98Q-34" value="" style="edgeStyle=orthogonalEdgeStyle;rounded=0;orthogonalLoop=1;jettySize=auto;html=1;" parent="1" source="4XdBwHwUQS5oedmEY98Q-31" target="4XdBwHwUQS5oedmEY98Q-33" edge="1">
          <mxGeometry relative="1" as="geometry" />
        </mxCell>
        <mxCell id="4XdBwHwUQS5oedmEY98Q-36" value="" style="edgeStyle=orthogonalEdgeStyle;rounded=0;orthogonalLoop=1;jettySize=auto;html=1;" parent="1" source="4XdBwHwUQS5oedmEY98Q-31" edge="1">
          <mxGeometry relative="1" as="geometry">
            <mxPoint x="860" y="1020" as="targetPoint" />
          </mxGeometry>
        </mxCell>
        <mxCell id="4XdBwHwUQS5oedmEY98Q-31" value="最优价&amp;lt;卖1 且 最优价&amp;gt;买1价" style="rhombus;whiteSpace=wrap;html=1;" parent="1" vertex="1">
          <mxGeometry x="610" y="980" width="140" height="80" as="geometry" />
        </mxCell>
        <mxCell id="4XdBwHwUQS5oedmEY98Q-33" value="理论卖价=最优价" style="ellipse;whiteSpace=wrap;html=1;" parent="1" vertex="1">
          <mxGeometry x="640" y="1140" width="80" height="80" as="geometry" />
        </mxCell>
        <mxCell id="4XdBwHwUQS5oedmEY98Q-39" value="" style="edgeStyle=orthogonalEdgeStyle;rounded=0;orthogonalLoop=1;jettySize=auto;html=1;" parent="1" source="4XdBwHwUQS5oedmEY98Q-37" target="4XdBwHwUQS5oedmEY98Q-38" edge="1">
          <mxGeometry relative="1" as="geometry" />
        </mxCell>
        <mxCell id="4XdBwHwUQS5oedmEY98Q-37" value="最优价&amp;lt;买1" style="rhombus;whiteSpace=wrap;html=1;" parent="1" vertex="1">
          <mxGeometry x="860" y="980" width="140" height="80" as="geometry" />
        </mxCell>
        <mxCell id="4XdBwHwUQS5oedmEY98Q-38" value="理论卖价=买1价" style="ellipse;whiteSpace=wrap;html=1;" parent="1" vertex="1">
          <mxGeometry x="890" y="1140" width="80" height="80" as="geometry" />
        </mxCell>
        <mxCell id="CW8RI-z4g_MSigTuveRM-15" style="edgeStyle=orthogonalEdgeStyle;rounded=0;orthogonalLoop=1;jettySize=auto;html=1;exitX=0.5;exitY=1;exitDx=0;exitDy=0;entryX=0.5;entryY=0;entryDx=0;entryDy=0;" edge="1" parent="1" source="4XdBwHwUQS5oedmEY98Q-42" target="4XdBwHwUQS5oedmEY98Q-43">
          <mxGeometry relative="1" as="geometry" />
        </mxCell>
        <mxCell id="eamRJrsaXMUsOOvShAjL-2" value="" style="edgeStyle=orthogonalEdgeStyle;rounded=0;orthogonalLoop=1;jettySize=auto;html=1;" edge="1" parent="1" source="4XdBwHwUQS5oedmEY98Q-42" target="eamRJrsaXMUsOOvShAjL-1">
          <mxGeometry relative="1" as="geometry" />
        </mxCell>
        <mxCell id="4XdBwHwUQS5oedmEY98Q-42" value="有单" style="rhombus;whiteSpace=wrap;html=1;" parent="1" vertex="1">
          <mxGeometry x="230" y="1440" width="80" height="80" as="geometry" />
        </mxCell>
        <mxCell id="4XdBwHwUQS5oedmEY98Q-48" value="" style="edgeStyle=orthogonalEdgeStyle;rounded=0;orthogonalLoop=1;jettySize=auto;html=1;" parent="1" source="4XdBwHwUQS5oedmEY98Q-43" target="4XdBwHwUQS5oedmEY98Q-47" edge="1">
          <mxGeometry relative="1" as="geometry" />
        </mxCell>
        <mxCell id="4XdBwHwUQS5oedmEY98Q-50" value="" style="edgeStyle=orthogonalEdgeStyle;rounded=0;orthogonalLoop=1;jettySize=auto;html=1;" parent="1" source="4XdBwHwUQS5oedmEY98Q-43" target="4XdBwHwUQS5oedmEY98Q-49" edge="1">
          <mxGeometry relative="1" as="geometry" />
        </mxCell>
        <mxCell id="4XdBwHwUQS5oedmEY98Q-43" value="理论卖价=当前卖价" style="rhombus;whiteSpace=wrap;html=1;" parent="1" vertex="1">
          <mxGeometry x="230" y="1580" width="80" height="80" as="geometry" />
        </mxCell>
        <mxCell id="4XdBwHwUQS5oedmEY98Q-47" value="none" style="ellipse;whiteSpace=wrap;html=1;" parent="1" vertex="1">
          <mxGeometry x="230" y="1720" width="80" height="80" as="geometry" />
        </mxCell>
        <mxCell id="4XdBwHwUQS5oedmEY98Q-49" value="cancel" style="ellipse;whiteSpace=wrap;html=1;" parent="1" vertex="1">
          <mxGeometry x="400" y="1580" width="80" height="80" as="geometry" />
        </mxCell>
        <mxCell id="CW8RI-z4g_MSigTuveRM-5" style="edgeStyle=orthogonalEdgeStyle;rounded=0;orthogonalLoop=1;jettySize=auto;html=1;exitX=0.5;exitY=1;exitDx=0;exitDy=0;entryX=0.5;entryY=0;entryDx=0;entryDy=0;" edge="1" parent="1" source="CW8RI-z4g_MSigTuveRM-4" target="4XdBwHwUQS5oedmEY98Q-42">
          <mxGeometry relative="1" as="geometry" />
        </mxCell>
        <mxCell id="CW8RI-z4g_MSigTuveRM-9" value="" style="edgeStyle=orthogonalEdgeStyle;rounded=0;orthogonalLoop=1;jettySize=auto;html=1;" edge="1" parent="1" source="CW8RI-z4g_MSigTuveRM-4" target="CW8RI-z4g_MSigTuveRM-8">
          <mxGeometry relative="1" as="geometry" />
        </mxCell>
        <mxCell id="CW8RI-z4g_MSigTuveRM-4" value="理论价格&amp;gt;成本价" style="rhombus;whiteSpace=wrap;html=1;" vertex="1" parent="1">
          <mxGeometry x="230" y="1240" width="80" height="80" as="geometry" />
        </mxCell>
        <mxCell id="CW8RI-z4g_MSigTuveRM-12" value="" style="edgeStyle=orthogonalEdgeStyle;rounded=0;orthogonalLoop=1;jettySize=auto;html=1;" edge="1" parent="1" source="CW8RI-z4g_MSigTuveRM-8" target="CW8RI-z4g_MSigTuveRM-11">
          <mxGeometry relative="1" as="geometry" />
        </mxCell>
        <mxCell id="CW8RI-z4g_MSigTuveRM-14" value="" style="edgeStyle=orthogonalEdgeStyle;rounded=0;orthogonalLoop=1;jettySize=auto;html=1;" edge="1" parent="1" source="CW8RI-z4g_MSigTuveRM-8" target="CW8RI-z4g_MSigTuveRM-13">
          <mxGeometry relative="1" as="geometry" />
        </mxCell>
        <mxCell id="CW8RI-z4g_MSigTuveRM-8" value="有单" style="rhombus;whiteSpace=wrap;html=1;" vertex="1" parent="1">
          <mxGeometry x="385" y="1240" width="80" height="80" as="geometry" />
        </mxCell>
        <mxCell id="CW8RI-z4g_MSigTuveRM-11" value="cancel" style="ellipse;whiteSpace=wrap;html=1;" vertex="1" parent="1">
          <mxGeometry x="385" y="1340" width="80" height="80" as="geometry" />
        </mxCell>
        <mxCell id="CW8RI-z4g_MSigTuveRM-13" value="none" style="ellipse;whiteSpace=wrap;html=1;" vertex="1" parent="1">
          <mxGeometry x="545" y="1240" width="80" height="80" as="geometry" />
        </mxCell>
        <mxCell id="eamRJrsaXMUsOOvShAjL-8" value="" style="edgeStyle=orthogonalEdgeStyle;rounded=0;orthogonalLoop=1;jettySize=auto;html=1;" edge="1" parent="1" source="eamRJrsaXMUsOOvShAjL-1" target="eamRJrsaXMUsOOvShAjL-7">
          <mxGeometry relative="1" as="geometry" />
        </mxCell>
        <mxCell id="eamRJrsaXMUsOOvShAjL-10" value="" style="edgeStyle=orthogonalEdgeStyle;rounded=0;orthogonalLoop=1;jettySize=auto;html=1;" edge="1" parent="1" source="eamRJrsaXMUsOOvShAjL-1" target="eamRJrsaXMUsOOvShAjL-9">
          <mxGeometry relative="1" as="geometry" />
        </mxCell>
        <mxCell id="eamRJrsaXMUsOOvShAjL-1" value="当前卖1=理论卖价" style="rhombus;whiteSpace=wrap;html=1;" vertex="1" parent="1">
          <mxGeometry x="560" y="1440" width="80" height="80" as="geometry" />
        </mxCell>
        <mxCell id="eamRJrsaXMUsOOvShAjL-7" value="降低一个单位卖出" style="ellipse;whiteSpace=wrap;html=1;" vertex="1" parent="1">
          <mxGeometry x="560" y="1600" width="80" height="80" as="geometry" />
        </mxCell>
        <mxCell id="eamRJrsaXMUsOOvShAjL-9" value="当前理论价格卖出" style="ellipse;whiteSpace=wrap;html=1;" vertex="1" parent="1">
          <mxGeometry x="720" y="1440" width="80" height="80" as="geometry" />
        </mxCell>
      </root>
    </mxGraphModel>
  </diagram>
</mxfile>
